<svg width="12" height="7" viewBox="0 0 12 7" xmlns="http://www.w3.org/2000/svg">
<path d="M4.3125 6.80469C4.19531 6.89844 4.03125 6.89844 3.91406 6.80469L0.820312 3.71094C0.726562 3.59375 0.726562 3.42969 0.820312 3.3125L3.91406 0.21875C4.03125 0.125 4.19531 0.125 4.3125 0.21875L4.78125 0.6875C4.875 0.804688 4.875 0.96875 4.75781 1.08594L2.88281 2.89062H10.9688C11.1094 2.89062 11.25 3.03125 11.25 3.17188V3.82812C11.25 3.99219 11.1094 4.10938 10.9688 4.10938H2.88281L4.75781 5.9375C4.875 6.05469 4.875 6.21875 4.78125 6.33594L4.3125 6.80469Z"/>
</svg>
