<svg width="14" height="13" viewBox="0 0 14 13" fill="none" xmlns="http://www.w3.org/2000/svg">
<path d="M12.5078 2.23438C13.1406 2.86719 13.1406 3.875 12.5312 4.48438L5.125 11.9375L1.63281 12.5C1.25781 12.5703 0.929688 12.2422 1 11.8672L1.5625 8.375L9.01562 0.96875C9.625 0.359375 10.6328 0.359375 11.2422 0.96875L12.5078 2.23438ZM3.8125 7.57812H4.79688V8.70312H5.92188V9.6875L9.88281 5.70312L7.79688 3.61719L3.8125 7.57812ZM2.92188 11.2578L4.63281 10.9531L5.07812 10.5312V9.54688H3.95312V8.42188H2.96875L2.54688 8.86719L2.24219 10.5781L2.92188 11.2578ZM11.8047 3.75781C12.0156 3.54688 12.0156 3.19531 11.7812 2.96094L10.5156 1.69531C10.3047 1.48438 9.95312 1.48438 9.74219 1.69531L8.59375 2.84375L10.6562 4.90625L11.8047 3.75781Z" fill="white"/>
</svg>
