<svg width="13" height="13" viewBox="0 0 13 13" fill="none" xmlns="http://www.w3.org/2000/svg">
<path d="M11.9062 11.4922C12.0234 11.6094 12.0234 11.7969 11.9062 11.8906L11.3672 12.4297C11.2734 12.5469 11.0859 12.5469 10.9688 12.4297L8.13281 9.59375C8.08594 9.52344 8.0625 9.45312 8.0625 9.38281V9.07812C7.19531 9.80469 6.09375 10.25 4.875 10.25C2.17969 10.25 0 8.07031 0 5.375C0 2.70312 2.17969 0.5 4.875 0.5C7.54688 0.5 9.75 2.70312 9.75 5.375C9.75 6.59375 9.28125 7.71875 8.55469 8.5625H8.85938C8.92969 8.5625 9 8.60938 9.07031 8.65625L11.9062 11.4922ZM4.875 9.125C6.9375 9.125 8.625 7.46094 8.625 5.375C8.625 3.3125 6.9375 1.625 4.875 1.625C2.78906 1.625 1.125 3.3125 1.125 5.375C1.125 7.46094 2.78906 9.125 4.875 9.125Z" fill="white"/>
</svg>
